<svg width="64" height="64" viewBox="0 0 64 64" fill="none" xmlns="http://www.w3.org/2000/svg">
<path d="M31.918 27.0193C31.918 27.6166 32.398 28.086 32.9846 28.086C34.2006 28.086 35.182 29.078 35.182 30.2833C35.182 30.87 35.662 31.35 36.2486 31.35C36.8353 31.35 37.3153 30.87 37.3153 30.2833C37.3153 27.894 35.374 25.9526 32.9846 25.9526C32.398 25.9526 31.918 26.4326 31.918 27.0193ZM49.2833 31.35C49.8806 31.35 50.35 30.87 50.35 30.2833C50.35 20.7046 42.5633 12.918 32.9846 12.918C32.398 12.918 31.918 13.398 31.918 13.9846C31.918 14.5713 32.398 15.0513 32.9846 15.0513C41.39 15.0513 48.2166 21.8886 48.2166 30.2833C48.2166 30.87 48.6966 31.35 49.2833 31.35Z" fill="#E63A27"/>
<path d="M41.7011 30.2831C41.7011 30.8697 42.1811 31.3497 42.7677 31.3497C43.3544 31.3497 43.8344 30.8697 43.8344 30.2831C43.8344 24.2991 38.9704 19.4351 32.9864 19.4351C32.3997 19.4351 31.9197 19.9151 31.9197 20.5017C31.9197 21.0991 32.3997 21.5684 32.9864 21.5684C37.7971 21.5684 41.7011 25.4831 41.7011 30.2831ZM32.9864 6.40039C32.3997 6.40039 31.9197 6.88039 31.9197 7.46706C31.9197 8.05372 32.3997 8.53372 32.9864 8.53372C44.9864 8.53372 54.7464 18.2937 54.7464 30.2831C54.7464 30.8697 55.2157 31.3497 55.8131 31.3497C56.3997 31.3497 56.8797 30.8697 56.8797 30.2831C56.8797 17.1097 46.1597 6.40039 32.9864 6.40039ZM43.4077 41.5257L42.0104 42.2831C39.6531 43.5737 36.6664 43.1364 34.7571 41.2271L23.4931 29.9631C21.5837 28.0537 21.1464 25.0671 22.4371 22.6991L23.1944 21.3124C24.0477 19.7337 24.3571 17.9631 24.1011 16.1924C23.8592 14.4253 23.042 12.7871 21.7757 11.5311C20.2184 9.97372 18.1491 9.12039 15.9411 9.12039C13.7331 9.12039 11.6531 9.97372 10.0957 11.5311L9.55173 12.0857C6.67173 14.9657 6.34107 19.9257 8.61307 26.0697C10.7571 31.9364 15.0771 38.2937 20.7517 43.9684C29.4024 52.6191 39.0344 57.6004 45.9464 57.6004C48.6771 57.6004 50.9917 56.8217 52.6344 55.1791L53.1891 54.6244C53.9572 53.8571 54.5664 52.9459 54.9819 51.9429C55.3974 50.9399 55.611 49.8647 55.6104 48.7791C55.5955 46.5927 54.7265 44.4989 53.1891 42.9444C50.6184 40.3737 46.5971 39.7977 43.4077 41.5257Z" fill="#E63A27"/>
</svg>
