<svg width="217" height="217" viewBox="0 0 217 217" fill="none" xmlns="http://www.w3.org/2000/svg">
<path d="M181.125 180.789H35.871C28.2302 180.78 20.9049 177.741 15.502 172.338C10.099 166.935 7.05975 159.61 7.05078 151.969V65.0332C7.05975 57.3923 10.099 50.067 15.502 44.6641C20.9049 39.2612 28.2302 36.2219 35.871 36.2129H181.125C188.766 36.2219 196.091 39.2612 201.494 44.6641C206.897 50.067 209.936 57.3923 209.945 65.0332V151.969C209.936 159.61 206.897 166.935 201.494 172.338C196.091 177.741 188.766 180.78 181.125 180.789ZM35.871 46.3848C30.9252 46.3848 26.1819 48.3495 22.6846 51.8468C19.1874 55.344 17.2226 60.0873 17.2226 65.0332V151.969C17.2226 156.915 19.1874 161.658 22.6846 165.155C26.1819 168.653 30.9252 170.617 35.871 170.617H181.125C186.071 170.617 190.814 168.653 194.312 165.155C197.809 161.658 199.774 156.915 199.774 151.969V65.0332C199.774 60.0873 197.809 55.344 194.312 51.8468C190.814 48.3495 186.071 46.3848 181.125 46.3848H35.871Z" fill="#E63A27"/>
<path d="M108.499 129.115C102.225 129.125 96.1182 127.089 91.1048 123.317L11.9338 63.4384C11.3744 63.0458 10.8999 62.5445 10.5385 61.9644C10.1772 61.3844 9.9365 60.7374 9.83077 60.0623C9.72504 59.3871 9.75646 58.6975 9.92316 58.0348C10.0899 57.372 10.3884 56.7497 10.801 56.2049C11.2136 55.6601 11.7317 55.204 12.3245 54.8639C12.9173 54.5238 13.5725 54.3067 14.2511 54.2255C14.9296 54.1443 15.6176 54.2007 16.2739 54.3912C16.9301 54.5818 17.5413 54.9027 18.0708 55.3348L97.2418 115.281C100.493 117.708 104.442 119.019 108.499 119.019C112.556 119.019 116.504 117.708 119.756 115.281L198.927 55.3348C199.456 54.9027 200.067 54.5818 200.724 54.3912C201.38 54.2007 202.068 54.1443 202.746 54.2255C203.425 54.3067 204.08 54.5238 204.673 54.8639C205.266 55.204 205.784 55.6601 206.196 56.2049C206.609 56.7497 206.908 57.372 207.074 58.0348C207.241 58.6975 207.272 59.3871 207.167 60.0623C207.061 60.7374 206.82 61.3844 206.459 61.9644C206.098 62.5445 205.623 63.0458 205.064 63.4384L125.893 123.317C120.879 127.089 114.773 129.125 108.499 129.115Z" fill="#E63A27"/>
<path d="M14.1403 166.616C13.1088 166.617 12.1012 166.305 11.2512 165.721C10.4012 165.136 9.74905 164.307 9.38122 163.344C9.01339 162.38 8.94729 161.327 9.1917 160.325C9.4361 159.323 9.97946 158.419 10.7497 157.732L73.1371 102.092C74.1442 101.193 75.4674 100.731 76.8154 100.807C78.1634 100.883 79.4259 101.492 80.3252 102.499C81.2244 103.506 81.6868 104.829 81.6105 106.177C81.5342 107.525 80.9255 108.788 79.9183 109.687L17.5309 165.328C16.6044 166.17 15.3928 166.631 14.1403 166.616ZM202.862 166.616C201.61 166.631 200.398 166.17 199.472 165.328L137.084 109.687C136.077 108.788 135.468 107.525 135.392 106.177C135.316 104.829 135.778 103.506 136.677 102.499C137.577 101.492 138.839 100.883 140.187 100.807C141.535 100.731 142.858 101.193 143.865 102.092L206.219 157.732C206.989 158.419 207.532 159.323 207.777 160.325C208.021 161.327 207.955 162.38 207.587 163.344C207.22 164.307 206.567 165.136 205.717 165.721C204.867 166.305 203.86 166.617 202.828 166.616H202.862Z" fill="#E63A27"/>
</svg>
