<svg width="35" height="35" viewBox="0 0 35 35" fill="none" xmlns="http://www.w3.org/2000/svg">
<path d="M18.5361 18.2881C18.4005 18.1515 18.2392 18.043 18.0615 17.9689C17.8838 17.8949 17.6932 17.8568 17.5007 17.8568C17.3082 17.8568 17.1176 17.8949 16.9399 17.9689C16.7621 18.043 16.6008 18.1515 16.4653 18.2881L12.0903 22.6631C11.8079 22.9378 11.6462 23.3133 11.6408 23.7071C11.6353 24.1009 11.7865 24.4808 12.0611 24.7631C12.3357 25.0455 12.7112 25.2072 13.1051 25.2126C13.4989 25.2181 13.8788 25.0669 14.1611 24.7923L17.5007 21.3798L20.8403 24.7923C20.9759 24.929 21.1371 25.0375 21.3149 25.1115C21.4926 25.1856 21.6832 25.2237 21.8757 25.2237C22.0682 25.2237 22.2588 25.1856 22.4365 25.1115C22.6142 25.0375 22.7755 24.929 22.9111 24.7923C23.0478 24.6567 23.1563 24.4954 23.2303 24.3177C23.3044 24.14 23.3425 23.9494 23.3425 23.7569C23.3425 23.5644 23.3044 23.3738 23.2303 23.196C23.1563 23.0183 23.0478 22.857 22.9111 22.7215L18.5361 18.2881ZM14.1611 16.7131L17.5007 13.359L20.8403 16.7131C20.9759 16.8498 21.1371 16.9583 21.3149 17.0324C21.4926 17.1064 21.6832 17.1445 21.8757 17.1445C22.0682 17.1445 22.2588 17.1064 22.4365 17.0324C22.6142 16.9583 22.7755 16.8498 22.9111 16.7131C23.0478 16.5776 23.1563 16.4163 23.2303 16.2386C23.3044 16.0609 23.3425 15.8702 23.3425 15.6777C23.3425 15.4852 23.3044 15.2946 23.2303 15.1169C23.1563 14.9392 23.0478 14.7779 22.9111 14.6423L18.5361 10.2673C18.4005 10.1306 18.2392 10.0221 18.0615 9.94809C17.8838 9.87406 17.6932 9.83594 17.5007 9.83594C17.3082 9.83594 17.1176 9.87406 16.9399 9.94809C16.7621 10.0221 16.6008 10.1306 16.4653 10.2673L12.0903 14.6423C11.8157 14.9169 11.6614 15.2894 11.6614 15.6777C11.6614 16.0661 11.8157 16.4385 12.0903 16.7131C12.3649 16.9878 12.7373 17.142 13.1257 17.142C13.514 17.142 13.8865 16.9878 14.1611 16.7131Z" fill="white"/>
</svg>
