<svg width="61" height="48" viewBox="0 0 61 48" fill="none" xmlns="http://www.w3.org/2000/svg">
<path d="M36.3001 32.3437C36.3001 32.5807 36.3943 32.808 36.5618 32.9756C36.7294 33.1431 36.9567 33.2373 37.1937 33.2373H39.8219C39.6593 33.5452 39.4158 33.803 39.1177 33.9829C38.8196 34.1628 38.478 34.2581 38.1298 34.2584H37.1937C37.0187 34.2584 36.8476 34.3098 36.7015 34.4062C36.5555 34.5025 36.4409 34.6397 36.3721 34.8005C36.3033 34.9614 36.2832 35.139 36.3144 35.3111C36.3456 35.4833 36.4266 35.6426 36.5475 35.7691L40.2918 39.6895C40.3729 39.7744 40.4698 39.8425 40.5772 39.8898C40.6845 39.9372 40.8002 39.963 40.9175 39.9657C41.0348 39.9684 41.1515 39.948 41.2609 39.9056C41.3703 39.8632 41.4703 39.7996 41.5552 39.7186C41.64 39.6376 41.7081 39.5406 41.7555 39.4332C41.8029 39.3259 41.8287 39.2103 41.8314 39.0929C41.8341 38.9756 41.8136 38.8589 41.7712 38.7495C41.7288 38.6401 41.6653 38.5401 41.5843 38.4552L39.147 35.9034C39.772 35.7232 40.3387 35.3821 40.7905 34.9143C41.2423 34.4464 41.5634 33.8681 41.7216 33.2373H42.3423C42.5793 33.2373 42.8066 33.1431 42.9742 32.9756C43.1418 32.808 43.2359 32.5807 43.2359 32.3437C43.2359 32.1067 43.1418 31.8795 42.9742 31.7119C42.8066 31.5443 42.5793 31.4502 42.3423 31.4502H41.722C41.6325 31.0903 41.4892 30.746 41.2969 30.429H42.3422C42.5792 30.429 42.8065 30.3349 42.9741 30.1673C43.1416 29.9997 43.2358 29.7725 43.2358 29.5355C43.2358 29.2985 43.1416 29.0712 42.9741 28.9036C42.8065 28.7361 42.5792 28.6419 42.3422 28.6419H37.1937C36.9567 28.6419 36.7294 28.7361 36.5618 28.9036C36.3943 29.0712 36.3001 29.2985 36.3001 29.5355C36.3001 29.7725 36.3943 29.9997 36.5618 30.1673C36.7294 30.3349 36.9567 30.429 37.1937 30.429H38.1298C38.478 30.4294 38.8195 30.5246 39.1177 30.7045C39.4158 30.8844 39.6593 31.1421 39.8219 31.4501H37.1937C36.9567 31.4501 36.7294 31.5442 36.5618 31.7118C36.3943 31.8793 36.3001 32.1066 36.3001 32.3436V32.3437ZM56.5322 21.2617H34.0287L33.3301 14.3734C33.2149 13.2693 32.8878 12.1979 32.3668 11.2177L31.9777 10.4855L31.9632 10.457C31.9614 10.4532 31.9594 10.4494 31.9575 10.4457L28.69 3.98329C28.4296 3.46811 28.0367 3.03159 27.5517 2.71859C27.0667 2.40559 26.5071 2.22742 25.9304 2.20238C25.8973 2.20104 25.8642 2.20143 25.8311 2.20358L24.434 2.29841C20.2474 2.58252 16.0609 2.86627 11.8746 3.14967L10.0126 3.27655C9.70516 3.26688 9.3979 3.25231 9.09093 3.23283C8.87254 3.21889 8.64975 3.20173 8.41576 3.18136C8.37242 2.77621 8.20399 2.39461 7.93386 2.08956C7.66374 1.7845 7.30532 1.57113 6.90839 1.47909L1.11065 0.0267702C0.88076 -0.0308012 0.637414 0.00530884 0.434147 0.127157C0.23088 0.249005 0.0843419 0.446609 0.0267703 0.6765C-0.0308014 0.90639 0.00530906 1.14973 0.127158 1.353C0.249006 1.55627 0.446612 1.7028 0.676503 1.76037L6.48246 3.21484L6.50212 3.21948C6.54831 3.23 6.58844 3.25841 6.6137 3.29848C6.63897 3.33855 6.6473 3.38701 6.63687 3.43322L3.74497 16.1914C3.73981 16.2143 3.73018 16.236 3.71663 16.2552C3.70309 16.2743 3.6859 16.2906 3.66605 16.3031C3.6462 16.3157 3.62407 16.3241 3.60093 16.3281C3.5778 16.332 3.55411 16.3314 3.53123 16.3262L1.09123 15.773C0.976783 15.7471 0.858344 15.7439 0.742677 15.7637C0.62701 15.7836 0.51638 15.826 0.417105 15.8886C0.317829 15.9511 0.231851 16.0327 0.16408 16.1285C0.096309 16.2243 0.0480723 16.3325 0.0221238 16.4469C-0.00382473 16.5614 -0.00697679 16.6798 0.0128476 16.7955C0.0326719 16.9112 0.0750845 17.0218 0.137664 17.1211C0.200243 17.2203 0.281763 17.3063 0.37757 17.3741C0.473377 17.4419 0.581594 17.4901 0.696042 17.516L3.13616 18.0691C3.27997 18.1018 3.42699 18.1183 3.57448 18.1184C4.01968 18.1172 4.45131 17.965 4.79885 17.6868C5.14639 17.4085 5.38929 17.0207 5.48788 16.5865L5.50217 16.5234L7.22006 17.7104C7.64885 18.0067 8.1168 18.2419 8.61043 18.4092L11.004 19.2253C10.6585 19.4601 10.3813 19.7821 10.2006 20.1587C10.0198 20.5352 9.94193 20.9529 9.97483 21.3693C9.97602 21.3927 9.97805 21.4163 9.98103 21.4404C10.0364 22.0286 10.3092 22.575 10.7462 22.9727C11.1832 23.3703 11.7528 23.5906 12.3436 23.5905C12.3713 23.5905 12.3996 23.59 12.4276 23.5891C12.9492 23.571 13.4709 23.5527 13.9928 23.5343C13.7795 23.9785 13.7023 24.476 13.7708 24.964C13.8393 25.4521 14.0506 25.909 14.378 26.2773C14.7055 26.6456 15.1345 26.909 15.6111 27.0342C16.0878 27.1595 16.5908 27.141 17.057 26.9812L18.5359 26.4754V42.8785C18.5372 44.0631 19.0084 45.1987 19.846 46.0363C20.6835 46.8738 21.8192 47.345 23.0037 47.3463H56.5322C57.7167 47.345 58.8524 46.8738 59.69 46.0363C60.5275 45.1987 60.9987 44.0631 61 42.8785V25.7294C60.9987 24.5449 60.5275 23.4093 59.69 22.5717C58.8524 21.7341 57.7167 21.263 56.5322 21.2617ZM12.3656 21.8031C12.2151 21.8079 12.0684 21.7549 11.9558 21.655C11.8431 21.5551 11.7729 21.4159 11.7597 21.2658C11.7591 21.259 11.7584 21.2521 11.7575 21.2452L11.7572 21.239C11.7448 21.1001 11.7823 20.9613 11.863 20.8475C11.9437 20.7338 12.0623 20.6525 12.1975 20.6183C12.3604 20.5772 12.6576 20.4832 13.128 20.3335C13.3209 20.272 13.5424 20.2013 13.713 20.1488L16.7868 21.1967L16.0998 21.6726C14.8546 21.7167 13.6099 21.7602 12.3656 21.8031ZM18.6997 24.5306L16.4766 25.291C16.3827 25.323 16.2831 25.335 16.1843 25.3264C16.0855 25.3178 15.9896 25.2887 15.9026 25.2409C15.8157 25.1932 15.7396 25.1278 15.6793 25.0491C15.619 24.9703 15.5758 24.8799 15.5524 24.7835C15.5185 24.6401 15.5292 24.4899 15.5831 24.3528C15.6371 24.2158 15.7317 24.0985 15.8542 24.0168L16.791 23.3678C16.8847 23.3245 16.9701 23.2652 17.0436 23.1927L18.7201 22.0313L19.7822 22.6361C19.2697 23.168 18.8977 23.8191 18.6997 24.5306ZM18.7623 19.999C18.7133 19.9712 18.6619 19.948 18.6086 19.9298L14.0415 18.3727L14.0285 18.3682L9.18481 16.717C8.84777 16.6027 8.52826 16.4421 8.2355 16.2398L6.16483 14.8089C6.08914 14.7567 6.00584 14.7164 5.91786 14.6896L8.12625 4.94749C8.14388 4.95011 8.16139 4.95345 8.1795 4.95499C8.7861 5.00942 9.39419 5.04582 10.0029 5.06413C10.0302 5.06496 10.0583 5.0646 10.086 5.0627L11.9958 4.9326C16.1826 4.6496 20.369 4.36589 24.555 4.08146L25.8967 3.99032C26.1483 4.00867 26.3908 4.09183 26.6007 4.23171C26.8107 4.37159 26.9808 4.56343 27.0946 4.78856L30.3622 11.2508L30.3908 11.3071C30.3937 11.3128 30.3966 11.3184 30.3996 11.3241L30.7883 12.0556C31.2013 12.8326 31.4608 13.6818 31.5524 14.557L32.2323 21.2617H30.0447L29.4412 16.3641C29.4253 16.235 29.3815 16.1109 29.3126 16.0005C29.2438 15.8901 29.1517 15.7961 29.0428 15.725L27.9931 15.0401C27.9872 15.0361 27.982 15.0317 27.976 15.0278L25.2272 13.2357C24.925 13.0388 24.5856 12.9061 24.2301 12.8458C23.8745 12.7855 23.5103 12.7988 23.1601 12.8849C22.8099 12.9711 22.4812 13.1283 22.1942 13.3467C21.9072 13.5651 21.6681 13.8401 21.4918 14.1547C21.3404 14.4242 21.238 14.7185 21.1895 15.0237C21.1817 15.0687 21.1755 15.1151 21.1712 15.16C21.1609 15.2531 21.1558 15.3467 21.1558 15.4404C21.1541 15.8392 21.2437 16.2331 21.4178 16.5919C21.5919 16.9506 21.8458 17.2648 22.1602 17.5102L28.935 22.8441L28.9374 22.846L30.3557 23.9628C30.506 24.0796 30.6245 24.2323 30.7003 24.4069C30.7966 24.6293 30.8213 24.8762 30.7709 25.1134C30.7515 25.2018 30.7218 25.2877 30.6823 25.3691C30.6804 25.3734 30.678 25.3775 30.6762 25.3818C30.5807 25.5742 30.4332 25.7359 30.2504 25.8487C30.0676 25.9616 29.8569 26.0209 29.6421 26.02C29.4423 26.0205 29.2459 25.9684 29.0726 25.8689L18.7623 19.999ZM31.8949 26.7596C31.9324 26.7149 31.9683 26.6694 32.0027 26.623H53.1327C53.2922 27.2246 53.608 27.7734 54.0481 28.2135C54.4883 28.6536 55.037 28.9695 55.6387 29.129V39.4789C55.037 39.6384 54.4883 39.9542 54.0481 40.3944C53.608 40.8345 53.2922 41.3832 53.1327 41.9849H26.4032C26.2437 41.3832 25.9279 40.8345 25.4878 40.3944C25.0476 39.9542 24.4989 39.6384 23.8972 39.4789V29.129C24.4989 28.9695 25.0476 28.6536 25.4878 28.2135C25.9279 27.7734 26.2437 27.2246 26.4032 26.623H26.785L28.1887 27.4222C28.7865 27.7623 29.4846 27.8823 30.1616 27.7612C30.8387 27.6402 31.452 27.2858 31.8949 26.7596ZM28.0755 19.8928L23.2634 16.1042C23.1628 16.0254 23.0816 15.9246 23.026 15.8095C22.9705 15.6944 22.9421 15.5681 22.9429 15.4403C22.9429 15.4109 22.9445 15.3815 22.9478 15.3523C22.9488 15.3448 22.9492 15.3388 22.95 15.3312C22.9514 15.3236 22.9526 15.316 22.9538 15.3084C22.969 15.21 23.0018 15.1151 23.0507 15.0284C23.1074 14.9273 23.1843 14.8389 23.2765 14.7687C23.3688 14.6985 23.4744 14.6479 23.587 14.6202C23.6996 14.5925 23.8166 14.5882 23.9309 14.6076C24.0452 14.6269 24.1543 14.6696 24.2514 14.7328L25.0151 15.2308L25.0185 15.2332L27.7183 16.9947L28.0755 19.8928ZM59.2129 42.8785C59.2121 43.5893 58.9294 44.2706 58.4268 44.7732C57.9243 45.2757 57.2429 45.5584 56.5322 45.5592H23.0037C22.293 45.5584 21.6116 45.2757 21.1091 44.7732C20.6065 44.2706 20.3238 43.5893 20.323 42.8785V25.7294C20.3237 25.3085 20.4233 24.8936 20.6137 24.5181C20.8042 24.1427 21.0803 23.8174 21.4196 23.5682L24.7686 25.4749C24.7439 25.5575 24.7313 25.6432 24.7312 25.7294C24.7307 26.1874 24.5485 26.6265 24.2246 26.9504C23.9008 27.2742 23.4617 27.4564 23.0037 27.457C22.7667 27.457 22.5394 27.5511 22.3718 27.7187C22.2043 27.8862 22.1101 28.1135 22.1101 28.3505V40.2574C22.1101 40.4943 22.2043 40.7216 22.3718 40.8892C22.5394 41.0568 22.7667 41.1509 23.0037 41.1509C23.4617 41.1514 23.9008 41.3336 24.2246 41.6575C24.5485 41.9813 24.7307 42.4204 24.7312 42.8784C24.7312 43.1154 24.8254 43.3427 24.9929 43.5103C25.1605 43.6778 25.3878 43.772 25.6248 43.772H53.9111C54.1481 43.772 54.3754 43.6778 54.543 43.5103C54.7105 43.3427 54.8047 43.1154 54.8047 42.8784C54.8052 42.4204 54.9874 41.9813 55.3113 41.6575C55.6351 41.3336 56.0742 41.1514 56.5322 41.1509C56.7692 41.1509 56.9965 41.0568 57.1641 40.8892C57.3316 40.7216 57.4258 40.4943 57.4258 40.2574V28.3505C57.4258 28.1135 57.3316 27.8862 57.1641 27.7187C56.9965 27.5511 56.7692 27.457 56.5322 27.457C56.0742 27.4564 55.6351 27.2742 55.3113 26.9504C54.9874 26.6265 54.8052 26.1874 54.8047 25.7294C54.8047 25.4924 54.7105 25.2652 54.543 25.0976C54.3754 24.93 54.1481 24.8359 53.9111 24.8359H32.5816C32.5776 24.4423 32.4949 24.0535 32.3382 23.6924C32.2377 23.462 32.1076 23.2456 31.9513 23.0488H56.5322C57.2429 23.0496 57.9243 23.3323 58.4268 23.8348C58.9294 24.3374 59.2121 25.0187 59.2129 25.7294V42.8785Z" fill="#E63A27"/>
</svg>
