<svg width="64" height="64" viewBox="0 0 64 64" fill="none" xmlns="http://www.w3.org/2000/svg">
<path d="M60 15H37V5C37 4.20435 36.6839 3.44129 36.1213 2.87868C35.5587 2.31607 34.7956 2 34 2H6C5.20435 2 4.44129 2.31607 3.87868 2.87868C3.31607 3.44129 3 4.20435 3 5V59C3 59.7956 3.31607 60.5587 3.87868 61.1213C4.44129 61.6839 5.20435 62 6 62H34C34.7956 62 35.5587 61.6839 36.1213 61.1213C36.6839 60.5587 37 59.7956 37 59V48H57C57.2652 48 57.5196 47.8946 57.7071 47.7071C57.8946 47.5196 58 47.2652 58 47V45H60C60.2652 45 60.5196 44.8946 60.7071 44.7071C60.8946 44.5196 61 44.2652 61 44V16C61 15.7348 60.8946 15.4804 60.7071 15.2929C60.5196 15.1054 60.2652 15 60 15ZM37 20H50.072C50.2909 21.4945 50.9858 22.8787 52.0537 23.9469C53.1216 25.0152 54.5055 25.7106 56 25.93V34.071C54.5052 34.2895 53.1209 34.9845 52.0527 36.0527C50.9845 37.1209 50.2895 38.5052 50.071 40H37V20ZM6 4H34C34.2652 4 34.5196 4.10536 34.7071 4.29289C34.8946 4.48043 35 4.73478 35 5V7H26C25.8354 6.99998 25.6734 7.04058 25.5282 7.11821C25.3831 7.19583 25.2593 7.30808 25.168 7.445L23.465 10H16.535L14.835 7.445C14.7434 7.30766 14.6192 7.19515 14.4735 7.1175C14.3278 7.03985 14.1651 6.99948 14 7H5V5C5 4.73478 5.10536 4.48043 5.29289 4.29289C5.48043 4.10536 5.73478 4 6 4ZM34 60H6C5.73478 60 5.48043 59.8946 5.29289 59.7071C5.10536 59.5196 5 59.2652 5 59V54H35V59C35 59.2652 34.8946 59.5196 34.7071 59.7071C34.5196 59.8946 34.2652 60 34 60ZM35 52H5V9H13.465L15.165 11.555C15.2566 11.6923 15.3808 11.8049 15.5265 11.8825C15.6722 11.9602 15.8349 12.0005 16 12H24C24.1646 12 24.3266 11.9594 24.4718 11.8818C24.6169 11.8042 24.7407 11.6919 24.832 11.555L26.535 9H35V52ZM56 46H37V45H56V46ZM59 43H37V42H51C51.2652 42 51.5196 41.8946 51.7071 41.7071C51.8946 41.5196 52 41.2652 52 41C52.0016 39.6744 52.5289 38.4036 53.4662 37.4662C54.4036 36.5289 55.6744 36.0016 57 36C57.2652 36 57.5196 35.8946 57.7071 35.7071C57.8946 35.5196 58 35.2652 58 35V25C58 24.7348 57.8946 24.4804 57.7071 24.2929C57.5196 24.1054 57.2652 24 57 24C56.1415 24.004 55.2967 23.7849 54.5483 23.3641C53.8 22.9434 53.1738 22.3355 52.731 21.6C52.2478 20.8193 51.9945 19.9181 52 19C52 18.7348 51.8946 18.4804 51.7071 18.2929C51.5196 18.1054 51.2652 18 51 18H37V17H59V43Z" fill="#E63A27"/>
<path d="M20 59C21.1046 59 22 58.1046 22 57C22 55.8954 21.1046 55 20 55C18.8954 55 18 55.8954 18 57C18 58.1046 18.8954 59 20 59Z" fill="#E63A27"/>
<path d="M23 6H17V8H23V6Z" fill="#E63A27"/>
<path d="M8 15H9V13H7C6.73478 13 6.48043 13.1054 6.29289 13.2929C6.10536 13.4804 6 13.7348 6 14V16H8V15ZM33 13H31V15H32V16H34V14C34 13.7348 33.8946 13.4804 33.7071 13.2929C33.5196 13.1054 33.2652 13 33 13ZM8 48H6V50C6 50.2652 6.10536 50.5196 6.29289 50.7071C6.48043 50.8946 6.73478 51 7 51H9V49H8V48ZM32 49H31V51H33C33.2652 51 33.5196 50.8946 33.7071 50.7071C33.8946 50.5196 34 50.2652 34 50V48H32V49ZM20 18C17.6266 18 15.3065 18.7038 13.3332 20.0224C11.3598 21.3409 9.8217 23.2151 8.91345 25.4078C8.00519 27.6005 7.76755 30.0133 8.23058 32.3411C8.6936 34.6689 9.83649 36.8071 11.5147 38.4853C13.1929 40.1635 15.3311 41.3064 17.6589 41.7694C19.9867 42.2324 22.3995 41.9948 24.5922 41.0866C26.7849 40.1783 28.6591 38.6402 29.9776 36.6668C31.2962 34.6935 32 32.3734 32 30C31.9966 26.8185 30.7312 23.7682 28.4815 21.5185C26.2318 19.2688 23.1815 18.0034 20 18ZM20 40C18.0222 40 16.0888 39.4135 14.4443 38.3147C12.7998 37.2159 11.5181 35.6541 10.7612 33.8268C10.0043 31.9996 9.8063 29.9889 10.1921 28.0491C10.578 26.1093 11.5304 24.3275 12.9289 22.9289C14.3275 21.5304 16.1093 20.578 18.0491 20.1921C19.9889 19.8063 21.9996 20.0043 23.8268 20.7612C25.6541 21.5181 27.2159 22.7998 28.3147 24.4443C29.4135 26.0888 30 28.0222 30 30C29.9971 32.6513 28.9426 35.1931 27.0679 37.0679C25.1931 38.9426 22.6513 39.9971 20 40Z" fill="#E63A27"/>
<path d="M17.707 25.707L16.293 24.293L13.293 27.293C13.1532 27.4329 13.058 27.611 13.0194 27.805C12.9808 27.9989 13.0007 28.2 13.0763 28.3827C13.152 28.5654 13.2801 28.7215 13.4445 28.8314C13.609 28.9413 13.8022 29 14 29H26V27H16.414L17.707 25.707ZM25 31H13V33H22.586L21.293 34.293L22.707 35.707L25.707 32.707C25.8468 32.5671 25.942 32.389 25.9806 32.195C26.0192 32.0011 25.9993 31.8 25.9237 31.6173C25.848 31.4346 25.7199 31.2785 25.5555 31.1686C25.391 31.0587 25.1978 31 25 31ZM45 28H47C47 27.2044 46.6839 26.4413 46.1213 25.8787C45.5587 25.3161 44.7956 25 44 25V24H42V25C41.2044 25 40.4413 25.3161 39.8787 25.8787C39.3161 26.4413 39 27.2044 39 28C39 28.7956 39.3161 29.5587 39.8787 30.1213C40.4413 30.6839 41.2044 31 42 31V33C41.7348 33 41.4804 32.8946 41.2929 32.7071C41.1054 32.5196 41 32.2652 41 32H39C39 32.7956 39.3161 33.5587 39.8787 34.1213C40.4413 34.6839 41.2044 35 42 35V36H44V35C44.7956 35 45.5587 34.6839 46.1213 34.1213C46.6839 33.5587 47 32.7956 47 32C47 31.2044 46.6839 30.4413 46.1213 29.8787C45.5587 29.3161 44.7956 29 44 29V27C44.2652 27 44.5196 27.1054 44.7071 27.2929C44.8946 27.4804 45 27.7348 45 28ZM45 32C45 32.2652 44.8946 32.5196 44.7071 32.7071C44.5196 32.8946 44.2652 33 44 33V31C44.2652 31 44.5196 31.1054 44.7071 31.2929C44.8946 31.4804 45 31.7348 45 32ZM42 29C41.7348 29 41.4804 28.8946 41.2929 28.7071C41.1054 28.5196 41 28.2652 41 28C41 27.7348 41.1054 27.4804 41.2929 27.2929C41.4804 27.1054 41.7348 27 42 27V29Z" fill="#E63A27"/>
</svg>
