<svg width="62" height="62" viewBox="0 0 62 62" fill="none" xmlns="http://www.w3.org/2000/svg">
<path d="M60.31 37.396L50 31.018V5C50 2.243 47.757 0 45 0H5C2.243 0 0 2.243 0 5V18H8V56H22V62H58V44H58.432C60.399 44 62 42.399 62 40.432C62 39.187 61.368 38.052 60.31 37.396ZM8 16H2V5C2 3.346 3.346 2 5 2C6.654 2 8 3.346 8 5V16ZM10 54V5C10 3.87 9.609 2.838 8.974 2H45C46.654 2 48 3.346 48 5V29.78L43.497 26.994C41.393 25.693 38.606 25.693 36.503 26.994L30 31.018V28H12V52H22V54H10ZM21.568 44H22V50H14V30H28V32.255L19.69 37.396C18.631 38.051 18 39.186 18 40.431C18 42.399 19.601 44 21.568 44ZM36 60H28V53C28 51.346 29.346 50 31 50H33C34.654 50 36 51.346 36 53V60ZM38 60V53C38 50.243 35.757 48 33 48H31C28.243 48 26 50.243 26 53V60H24V43.554C24.042 43.531 24.086 43.513 24.127 43.489L39.884 34H40.116L55.873 43.488C55.914 43.513 55.958 43.53 56 43.553V60H38ZM58.432 42H57.714C57.429 42 57.149 41.922 56.904 41.775L40.673 32H39.327L23.096 41.775C22.852 41.922 22.571 42 22.286 42H21.568C20.703 42 20 41.297 20 40.432C20 39.884 20.277 39.386 20.743 39.098L37.555 28.696C39.024 27.786 40.975 27.786 42.444 28.696L59.256 39.098C59.723 39.386 60 39.884 60 40.432C60 41.297 59.297 42 58.432 42Z" fill="#E63A27"/>
<path d="M44 40C44 37.794 42.206 36 40 36C37.794 36 36 37.794 36 40C36 42.206 37.794 44 40 44C42.206 44 44 42.206 44 40ZM38 40C38 38.897 38.897 38 40 38C41.103 38 42 38.897 42 40C42 41.103 41.103 42 40 42C38.897 42 38 41.103 38 40Z" fill="#E63A27"/>
<path d="M51 46H43C41.346 46 40 47.346 40 49V53C40 54.654 41.346 56 43 56H51C52.654 56 54 54.654 54 53V49C54 47.346 52.654 46 51 46ZM52 53C52 53.552 51.552 54 51 54H43C42.448 54 42 53.552 42 53V49C42 48.448 42.448 48 43 48H51C51.552 48 52 48.448 52 49V53Z" fill="#E63A27"/>
<path d="M29.2929 7.29271L15.293 21.2926L16.7072 22.7068L30.7071 8.70691L29.2929 7.29271Z" fill="#E63A27"/>
<path d="M27 16C25.346 16 24 17.346 24 19C24 20.654 25.346 22 27 22C28.654 22 30 20.654 30 19C30 17.346 28.654 16 27 16ZM27 20C26.448 20 26 19.551 26 19C26 18.449 26.448 18 27 18C27.552 18 28 18.449 28 19C28 19.551 27.552 20 27 20Z" fill="#E63A27"/>
<path d="M19 14C20.654 14 22 12.654 22 11C22 9.346 20.654 8 19 8C17.346 8 16 9.346 16 11C16 12.654 17.346 14 19 14ZM19 10C19.552 10 20 10.449 20 11C20 11.551 19.552 12 19 12C18.448 12 18 11.551 18 11C18 10.449 18.448 10 19 10Z" fill="#E63A27"/>
<path d="M34 4H12V26H34V4ZM32 24H14V6H32V24Z" fill="#E63A27"/>
<path d="M6 4H4V6H6V4Z" fill="#E63A27"/>
<path d="M6 8H4V10H6V8Z" fill="#E63A27"/>
<path d="M6 12H4V14H6V12Z" fill="#E63A27"/>
<path d="M38 4H36V6H38V4Z" fill="#E63A27"/>
<path d="M42 4H40V6H42V4Z" fill="#E63A27"/>
<path d="M46 4H44V6H46V4Z" fill="#E63A27"/>
<path d="M46 8H36V10H46V8Z" fill="#E63A27"/>
<path d="M46 12H36V14H46V12Z" fill="#E63A27"/>
<path d="M46 16H36V18H46V16Z" fill="#E63A27"/>
<path d="M46 20H36V22H46V20Z" fill="#E63A27"/>
</svg>
