<svg width="24" height="21" viewBox="0 0 24 21" fill="none" xmlns="http://www.w3.org/2000/svg">
<path d="M22 7.34L21.86 7C22.057 7 22.252 6.9612 22.434 6.88582C22.616 6.81044 22.7814 6.69995 22.9207 6.56066C23.0599 6.42137 23.1704 6.25601 23.2458 6.07403C23.3212 5.89204 23.36 5.69698 23.36 5.5C23.36 5.30302 23.3212 5.10796 23.2458 4.92597C23.1704 4.74399 23.0599 4.57863 22.9207 4.43934C22.7814 4.30005 22.616 4.18956 22.434 4.11418C22.252 4.0388 22.057 4 21.86 4H20.63L19.51 1.21C19.287 0.841712 18.9731 0.536971 18.5983 0.325067C18.2235 0.113164 17.8005 0.00122135 17.37 0H6.63C6.18531 0.00445776 5.74965 0.12605 5.36693 0.352525C4.98421 0.578999 4.66794 0.902352 4.45 1.29L3.36 4H2.12C1.92302 4 1.72796 4.0388 1.54597 4.11418C1.36399 4.18956 1.19863 4.30005 1.05934 4.43934C0.920052 4.57863 0.809563 4.74399 0.734181 4.92597C0.658799 5.10796 0.62 5.30302 0.62 5.5C0.62 5.69698 0.658799 5.89204 0.734181 6.07403C0.809563 6.25601 0.920052 6.42137 1.05934 6.56066C1.19863 6.69995 1.36399 6.81044 1.54597 6.88582C1.72796 6.9612 1.92302 7 2.12 7L2 7.34C1.40193 7.62369 0.896573 8.07116 0.542569 8.63049C0.188565 9.18981 0.000430883 9.83806 5.21142e-08 10.5V15.5C-0.000117575 16.0763 0.198892 16.635 0.563347 17.0815C0.927802 17.5279 1.43532 17.8347 2 17.95V19.5C2 19.8978 2.15804 20.2794 2.43934 20.5607C2.72064 20.842 3.10218 21 3.5 21H4.5C4.89782 21 5.27936 20.842 5.56066 20.5607C5.84196 20.2794 6 19.8978 6 19.5V18H18V19.5C18 19.8978 18.158 20.2794 18.4393 20.5607C18.7206 20.842 19.1022 21 19.5 21H20.5C20.8978 21 21.2794 20.842 21.5607 20.5607C21.842 20.2794 22 19.8978 22 19.5V17.95C22.5647 17.8347 23.0722 17.5279 23.4367 17.0815C23.8011 16.635 24.0001 16.0763 24 15.5V10.5C23.9996 9.83806 23.8114 9.18981 23.4574 8.63049C23.1034 8.07116 22.5981 7.62369 22 7.34ZM21.88 5C21.9737 4.99981 22.0656 5.02596 22.1452 5.07547C22.2247 5.12498 22.2888 5.19585 22.33 5.28C22.3674 5.35631 22.3847 5.44088 22.3803 5.52574C22.376 5.6106 22.35 5.69294 22.305 5.765C22.26 5.83706 22.1973 5.89645 22.1229 5.93756C22.0486 5.97868 21.965 6.00017 21.88 6H21.43L21.03 5H21.88ZM3.36 6.7L4.16 4.7L5.34 1.7C5.47775 1.48325 5.66851 1.30521 5.89423 1.18273C6.11996 1.06024 6.3732 0.997349 6.63 1H17.37C17.6166 0.998808 17.8596 1.05841 18.0776 1.17353C18.2956 1.28865 18.4819 1.45573 18.62 1.66L20.76 7H3.24L3.36 6.7ZM2.12 6C1.98739 6 1.86021 5.94732 1.76645 5.85355C1.67268 5.75979 1.62 5.63261 1.62 5.5C1.62 5.36739 1.67268 5.24021 1.76645 5.14645C1.86021 5.05268 1.98739 5 2.12 5H3L2.6 6H2.12ZM5 19.5C5 19.6326 4.94732 19.7598 4.85355 19.8536C4.75979 19.9473 4.63261 20 4.5 20H3.5C3.36739 20 3.24021 19.9473 3.14645 19.8536C3.05268 19.7598 3 19.6326 3 19.5V18H5V19.5ZM7.61 17L8.19 14H15.83L16.41 17H7.61ZM21 19.5C21 19.6326 20.9473 19.7598 20.8536 19.8536C20.7598 19.9473 20.6326 20 20.5 20H19.5C19.3674 20 19.2402 19.9473 19.1464 19.8536C19.0527 19.7598 19 19.6326 19 19.5V18H21V19.5ZM23 15.5C23 15.8978 22.842 16.2794 22.5607 16.5607C22.2794 16.842 21.8978 17 21.5 17H17.41L16.72 13.41C16.699 13.2952 16.6385 13.1914 16.549 13.1165C16.4595 13.0417 16.3467 13.0004 16.23 13H7.77C7.65332 13.0004 7.54046 13.0417 7.45097 13.1165C7.36148 13.1914 7.301 13.2952 7.28 13.41L6.59 17H2.5C2.10218 17 1.72064 16.842 1.43934 16.5607C1.15804 16.2794 1 15.8978 1 15.5V10.5C1 9.83696 1.26339 9.20107 1.73223 8.73223C2.20107 8.26339 2.83696 8 3.5 8H20.5C21.163 8 21.7989 8.26339 22.2678 8.73223C22.7366 9.20107 23 9.83696 23 10.5V15.5ZM6.5 9H3.5C3.10218 9 2.72064 9.15804 2.43934 9.43934C2.15804 9.72064 2 10.1022 2 10.5V11.5C2 11.6326 2.05268 11.7598 2.14645 11.8536C2.24021 11.9473 2.36739 12 2.5 12H6.5C6.63261 12 6.75979 11.9473 6.85355 11.8536C6.94732 11.7598 7 11.6326 7 11.5V9.5C7 9.36739 6.94732 9.24021 6.85355 9.14645C6.75979 9.05268 6.63261 9 6.5 9ZM6 11H3V10.5C3 10.3674 3.05268 10.2402 3.14645 10.1464C3.24021 10.0527 3.36739 10 3.5 10H6V11ZM3.5 13C3.20333 13 2.91332 13.088 2.66664 13.2528C2.41997 13.4176 2.22771 13.6519 2.11418 13.926C2.00065 14.2001 1.97094 14.5017 2.02882 14.7926C2.0867 15.0836 2.22956 15.3509 2.43934 15.5607C2.64912 15.7704 2.91639 15.9133 3.20736 15.9712C3.49834 16.0291 3.79994 15.9993 4.07403 15.8858C4.34811 15.7723 4.58238 15.58 4.7472 15.3334C4.91203 15.0867 5 14.7967 5 14.5C5 14.1022 4.84196 13.7206 4.56066 13.4393C4.27936 13.158 3.89782 13 3.5 13ZM3.5 15C3.40111 15 3.30444 14.9707 3.22221 14.9157C3.13999 14.8608 3.0759 14.7827 3.03806 14.6913C3.00022 14.6 2.99031 14.4994 3.00961 14.4025C3.0289 14.3055 3.07652 14.2164 3.14645 14.1464C3.21637 14.0765 3.30546 14.0289 3.40245 14.0096C3.49945 13.9903 3.59998 14.0002 3.69134 14.0381C3.7827 14.0759 3.86079 14.14 3.91573 14.2222C3.97068 14.3044 4 14.4011 4 14.5C4 14.6326 3.94732 14.7598 3.85355 14.8536C3.75979 14.9473 3.63261 15 3.5 15ZM14.5 10H10.5C10.3674 10 10.2402 10.0527 10.1464 10.1464C10.0527 10.2402 10 10.3674 10 10.5C10 10.6326 10.0527 10.7598 10.1464 10.8536C10.2402 10.9473 10.3674 11 10.5 11H14.5C14.6326 11 14.7598 10.9473 14.8536 10.8536C14.9473 10.7598 15 10.6326 15 10.5C15 10.3674 14.9473 10.2402 14.8536 10.1464C14.7598 10.0527 14.6326 10 14.5 10ZM20.5 9H17.5C17.3674 9 17.2402 9.05268 17.1464 9.14645C17.0527 9.24021 17 9.36739 17 9.5V11.5C17 11.6326 17.0527 11.7598 17.1464 11.8536C17.2402 11.9473 17.3674 12 17.5 12H21.5C21.6326 12 21.7598 11.9473 21.8536 11.8536C21.9473 11.7598 22 11.6326 22 11.5V10.5C22 10.1022 21.842 9.72064 21.5607 9.43934C21.2794 9.15804 20.8978 9 20.5 9ZM21 11H18V10H20.5C20.6326 10 20.7598 10.0527 20.8536 10.1464C20.9473 10.2402 21 10.3674 21 10.5V11ZM20.5 13C20.2033 13 19.9133 13.088 19.6666 13.2528C19.42 13.4176 19.2277 13.6519 19.1142 13.926C19.0007 14.2001 18.9709 14.5017 19.0288 14.7926C19.0867 15.0836 19.2296 15.3509 19.4393 15.5607C19.6491 15.7704 19.9164 15.9133 20.2074 15.9712C20.4983 16.0291 20.7999 15.9993 21.074 15.8858C21.3481 15.7723 21.5824 15.58 21.7472 15.3334C21.912 15.0867 22 14.7967 22 14.5C22 14.1022 21.842 13.7206 21.5607 13.4393C21.2794 13.158 20.8978 13 20.5 13ZM20.5 15C20.4011 15 20.3044 14.9707 20.2222 14.9157C20.14 14.8608 20.0759 14.7827 20.0381 14.6913C20.0002 14.6 19.9903 14.4994 20.0096 14.4025C20.0289 14.3055 20.0765 14.2164 20.1464 14.1464C20.2164 14.0765 20.3055 14.0289 20.4025 14.0096C20.4994 13.9903 20.6 14.0002 20.6913 14.0381C20.7827 14.0759 20.8608 14.14 20.9157 14.2222C20.9707 14.3044 21 14.4011 21 14.5C21 14.6326 20.9473 14.7598 20.8536 14.8536C20.7598 14.9473 20.6326 15 20.5 15Z" fill="#E63A27"/>
</svg>
