<svg width="58" height="58" viewBox="0 0 58 58" fill="none" xmlns="http://www.w3.org/2000/svg">
<path d="M28.9795 52.3537C16.0193 52.3537 5.47446 41.8095 5.47446 28.8487C5.47446 15.888 16.0194 5.34375 28.9795 5.34375C34.7793 5.34375 40.3508 7.47464 44.6674 11.3437C45.2043 11.8251 45.2489 12.6508 44.7669 13.1877C44.2861 13.7258 43.4611 13.7692 42.9229 13.2884C39.087 9.84915 34.1353 7.95539 28.9795 7.95539C17.4591 7.95539 8.08611 17.3283 8.08611 28.8487C8.08611 40.3692 17.4591 49.7421 28.9795 49.7421C40.2602 49.7421 49.4317 40.9188 49.8577 29.6553C49.8857 28.9348 50.4825 28.3604 51.212 28.3992C51.9325 28.4267 52.4948 29.033 52.4668 29.7535C51.9873 42.4267 41.6707 52.3537 28.9795 52.3537Z" fill="#E63A27"/>
<path d="M39.75 23.1986L37.6444 20.9702L26.3124 32.9636L18.4156 24.6059L16.31 26.8343L26.3114 37.4193L26.3124 37.4182L26.3134 37.4193L39.75 23.1986Z" fill="#E63A27"/>
</svg>
