<svg width="21" height="19" viewBox="0 0 21 19" fill="none" xmlns="http://www.w3.org/2000/svg">
<path d="M20.4842 7.45362C20.5866 6.96588 20.1769 6.38059 19.6648 6.38059L13.8268 5.6002L11.1639 0.527691C11.0615 0.332595 10.959 0.235046 10.7542 0.137498C10.2421 -0.155147 9.62757 0.03995 9.32031 0.527691L6.75979 5.6002L0.921789 6.38059C0.614526 6.38059 0.409684 6.47813 0.307263 6.67323C-0.102421 7.06342 -0.102421 7.64871 0.307263 8.03891L4.50652 11.9408L3.48231 17.5011C3.48231 17.6962 3.48231 17.8913 3.58473 18.0864C3.892 18.5741 4.50652 18.7692 5.01863 18.4766L10.2421 15.8428L15.4656 18.4766C15.568 18.5741 15.7728 18.5741 15.9777 18.5741C16.0801 18.5741 16.0801 18.5741 16.1825 18.5741C16.6946 18.4766 17.1043 17.9888 17.0019 17.4035L15.9777 11.8433L20.1769 7.94136C20.3818 7.84381 20.4842 7.64871 20.4842 7.45362ZM14.1341 10.8678C13.9293 11.0629 13.8268 11.4531 13.8268 11.7457L14.5438 15.8428L10.6518 13.8918C10.5494 13.7943 10.3445 13.7943 10.1397 13.7943V3.16149L12.0857 6.86833C12.1881 7.16097 12.4954 7.35607 12.905 7.35607L17.2067 7.94136L14.1341 10.8678Z" fill="#E9B00C"/>
</svg>
