<svg width="40" height="40" viewBox="0 0 40 40" fill="none" xmlns="http://www.w3.org/2000/svg">
<path fill-rule="evenodd" clip-rule="evenodd" d="M19 18.5H14C13.45 18.5 13 18.95 13 19.5V21.5H8C7.45 21.5 7 21.95 7 22.5V27.93L6.86 27.99C6.69 27.69 6.36 27.49 6 27.49H1C0.45 27.49 1.39083e-08 27.94 1.39083e-08 28.49V38.49C1.39083e-08 39.04 0.45 39.49 1 39.49H23.66C24.75 39.49 25.81 39.12 26.67 38.45C29.37 36.33 36.5 30.73 38.85 28.88C39.58 28.31 40 27.44 40 26.51C40 25.7 39.68 24.93 39.12 24.37C38.5542 23.8066 37.7884 23.4902 36.99 23.49H36.65C36.08 23.49 35.51 23.61 34.99 23.85L33 24.76V10.5C33 9.95 32.55 9.5 32 9.5H27V4.5C27 3.95 26.55 3.5 26 3.5H20C19.45 3.5 19 3.95 19 4.5V18.5ZM5 29.5H2V37.5H5V29.51V29.5ZM7 37.49H23.66C24.3 37.49 24.93 37.27 25.43 36.88C28.13 34.76 35.26 29.16 37.61 27.31C37.85 27.12 38 26.83 38 26.52C38.0005 26.2484 37.8936 25.9876 37.7024 25.7946C37.5113 25.6016 37.2516 25.4921 36.98 25.49H36.64C36.35 25.49 36.07 25.55 35.81 25.67L25.76 30.24C25.59 30.7 25.32 31.12 24.97 31.47C24.31 32.13 23.42 32.49 22.49 32.49H17.99C17.44 32.49 16.99 32.04 16.99 31.49C16.99 30.94 17.44 30.49 17.99 30.49H22.49C22.687 30.4901 22.8821 30.4514 23.0642 30.3761C23.2462 30.3008 23.4116 30.1903 23.551 30.051C23.6903 29.9116 23.8008 29.7462 23.8761 29.5642C23.9514 29.3821 23.9901 29.187 23.99 28.99C23.99 28.16 23.32 27.49 22.49 27.49H14.99C12.67 27.49 8.49 29.39 6.99 30.11V37.49H7ZM27 11.5V27.49L31 25.67V11.5H27ZM13 25.78V23.5H9V27.09C10.27 26.59 11.71 26.08 13 25.78ZM21 25.5H22.5C23.48 25.5 24.36 25.9 25 26.55V5.5H21V25.5ZM19 20.5V25.5H15V20.5H19ZM9 0.5C7.81804 0.500066 6.64766 0.732936 5.5557 1.18531C4.46373 1.63769 3.47156 2.30072 2.63583 3.13654C0.948004 4.82455 -0.000132594 7.11392 1.39083e-08 9.501C0.000132622 11.8881 0.948524 14.1773 2.63654 15.8652C4.32455 17.553 6.61392 18.5011 9.001 18.501C11.3881 18.5009 13.6773 17.5525 15.3652 15.8645C17.053 14.1764 18.0011 11.8871 18.001 9.5C18.0009 7.11292 17.0525 4.82366 15.3645 3.13583C13.6764 1.448 11.3871 0.499867 9 0.5ZM9 2.5C12.86 2.5 16 5.64 16 9.5C16 13.36 12.86 16.5 9 16.5C5.14 16.5 2 13.36 2 9.5C2 5.64 5.14 2.5 9 2.5ZM8 5.55C7.39242 5.67337 6.85236 6.0181 6.48466 6.51726C6.11695 7.01643 5.94784 7.63441 6.01014 8.25125C6.07245 8.86809 6.36173 9.43977 6.82183 9.85531C7.28193 10.2709 7.88002 10.5006 8.5 10.5H9.5C9.63 10.5 9.76 10.55 9.85 10.65C9.94 10.74 10 10.87 10 11C10 11.13 9.95 11.26 9.85 11.35C9.75708 11.4433 9.63166 11.4971 9.5 11.5H7C6.45 11.5 6 11.95 6 12.5C6 13.05 6.45 13.5 7 13.5H8V14.5C8 15.05 8.45 15.5 9 15.5C9.55 15.5 10 15.05 10 14.5V13.45C10.5657 13.3368 11.0745 13.0306 11.4394 12.5837C11.8042 12.1367 12.0024 11.5769 12 11C12 10.33 11.74 9.7 11.27 9.23C10.8 8.76 10.17 8.5 9.5 8.5H8.5C8.43442 8.5008 8.36941 8.48787 8.30913 8.46203C8.24885 8.4362 8.19465 8.39804 8.15 8.35C8.06 8.26 8 8.13 8 8C8 7.87 8.05 7.74 8.15 7.65C8.24292 7.55669 8.36834 7.50294 8.5 7.5H11C11.55 7.5 12 7.05 12 6.5C12 5.95 11.55 5.5 11 5.5H10V4.5C10 3.95 9.55 3.5 9 3.5C8.45 3.5 8 3.95 8 4.5V5.55Z" fill="white"/>
</svg>
