<svg width="63" height="63" viewBox="0 0 63 63" fill="none" xmlns="http://www.w3.org/2000/svg">
<g clip-path="url(#clip0_17_7)">
<path d="M48.2357 56.1093H46.2669C45.5254 56.1104 44.8039 56.3504 44.2095 56.7936C43.6151 57.2369 43.1792 57.8598 42.9666 58.5702H41.7006C41.6885 58.5281 41.6796 58.4855 41.666 58.4435C41.5227 58.0032 41.2928 57.5959 40.9897 57.2458C40.6867 56.8956 40.3167 56.6096 39.9014 56.4046L38.0903 55.4998C37.7253 55.3185 37.3315 55.202 36.9267 55.1552L36.8374 54.1067C37.486 53.8412 38.038 53.3838 38.4193 52.7957C38.8006 52.2077 38.9931 51.5171 38.9709 50.8166L38.9108 48.8485C38.888 48.1068 38.6263 47.3923 38.1648 46.8112C37.7033 46.2302 37.0666 45.8136 36.3493 45.6234L36.295 43.8601C36.9894 43.5121 37.5455 42.9392 37.8726 42.2346C38.1997 41.5301 38.2784 40.7356 38.0961 39.9805L37.6366 38.0661C37.435 37.2345 36.9319 36.5074 36.2246 36.0258C35.5174 35.5442 34.6565 35.3423 33.809 35.4594L33.2308 34.1654C33.7927 33.6815 34.1837 33.0295 34.3459 32.3059C34.5082 31.5824 34.433 30.8258 34.1316 30.1483L33.3284 28.3504C33.1187 27.8794 32.8059 27.4616 32.4131 27.1277C32.0202 26.7939 31.5573 26.5526 31.0587 26.4218C30.56 26.2909 30.0383 26.2738 29.5321 26.3717C29.026 26.4696 28.5483 26.68 28.1344 26.9874L27.0607 26.189C27.2077 25.7133 27.2493 25.2113 27.1826 24.7179C27.116 24.2245 26.9426 23.7515 26.6746 23.3319C26.4066 22.9123 26.0504 22.5561 25.6308 22.2881C25.2111 22.0202 24.7382 21.8468 24.2448 21.7801L22.2952 21.5066C21.7734 21.432 21.2414 21.4783 20.7404 21.6422C20.2394 21.806 19.7827 22.0829 19.4059 22.4514C19.029 22.82 18.742 23.2703 18.567 23.7675C18.392 24.2647 18.3337 24.7955 18.3967 25.3189L17.4474 25.8884C16.9435 25.4728 16.3318 25.2091 15.6837 25.128C15.0356 25.047 14.3778 25.1519 13.7871 25.4306C13.1964 25.7093 12.6971 26.1503 12.3475 26.702C11.9979 27.2538 11.8125 27.8936 11.8128 28.5467V29.6986C11.5144 29.8175 11.2497 30.0078 11.0418 30.2527C10.834 30.4977 10.6894 30.7899 10.6206 31.1037L9.9895 34.0087C7.17642 35.1265 4.76555 37.0662 3.07139 39.5747C1.37724 42.0833 0.478459 45.0442 0.492307 48.0712C0.525284 56.3029 7.14891 62.9999 15.2575 62.9999H15.2582L15.3183 62.9998C19.2625 62.9492 23.0257 61.3365 25.7825 58.5152C28.5393 55.694 30.0647 51.8945 30.0241 47.9502C30.0139 44.9234 29.0915 41.9699 27.3773 39.4752C25.6631 36.9806 23.2366 35.0606 20.4147 33.966L19.7604 31.0665C19.695 30.78 19.5661 30.5117 19.3832 30.2817C19.2003 30.0516 18.968 29.8655 18.7036 29.7372V28.5468C18.7039 28.1999 18.6516 27.8549 18.5486 27.5237L19.1879 27.1402C19.7321 27.7895 20.498 28.2136 21.3372 28.3302L23.2868 28.6037C23.7635 28.6713 24.249 28.6376 24.7117 28.5048C25.1745 28.3721 25.6041 28.1432 25.9724 27.8333L26.9525 28.5619C26.6372 29.4058 26.6676 30.3399 27.0369 31.1615L27.8401 32.9591C28.1376 33.6402 28.6498 34.2052 29.2985 34.5679C29.9472 34.9306 30.6967 35.071 31.4327 34.9678L32.019 36.28C31.5464 36.6937 31.1957 37.2286 31.0049 37.827C30.8142 38.4255 30.7905 39.0646 30.9366 39.6755L31.3966 41.59C31.5602 42.2741 31.9298 42.8915 32.4554 43.3589C32.981 43.8264 33.6373 44.1213 34.3359 44.204L34.3815 45.6838C33.6773 45.9177 33.0674 46.3727 32.6425 46.981C32.2175 47.5894 32.0002 48.3186 32.0229 49.0603L32.0834 51.028C32.1086 51.8102 32.399 52.5605 32.9067 53.1559C33.4145 53.7513 34.1096 54.1564 34.878 54.3048L34.9775 55.4747C34.2827 55.8004 33.715 56.3464 33.3624 57.028C33.1516 57.4336 33.0241 57.8773 32.9873 58.333C32.9506 58.7887 33.0054 59.2471 33.1486 59.6812C33.2918 60.1216 33.5218 60.5288 33.8248 60.879C34.1278 61.2291 34.4979 61.5151 34.9131 61.7201L36.7242 62.625C37.5555 63.0396 38.5162 63.1119 39.4002 62.8261C40.2841 62.5404 41.0208 61.9195 41.452 61.0967C41.5434 60.9176 41.6191 60.731 41.6783 60.5389H42.9666C43.1792 61.2493 43.615 61.8723 44.2095 62.3155C44.8039 62.7588 45.5253 62.9987 46.2669 62.9999H48.2357C49.1494 62.9999 50.0257 62.6369 50.6719 61.9908C51.318 61.3446 51.681 60.4683 51.681 59.5546C51.681 58.6408 51.318 57.7645 50.6719 57.1183C50.0257 56.4722 49.1494 56.1093 48.2357 56.1093ZM13.7816 28.5468C13.782 28.1553 13.9377 27.78 14.2146 27.5031C14.4914 27.2263 14.8667 27.0706 15.2582 27.0702C15.3212 27.0724 15.3839 27.0788 15.446 27.0892L15.2438 27.2105C15.1329 27.2771 15.0363 27.3648 14.9593 27.4687C14.8824 27.5725 14.8267 27.6906 14.7953 27.816C14.764 27.9414 14.7577 28.0718 14.7767 28.1996C14.7958 28.3275 14.8398 28.4504 14.9064 28.5612C14.9729 28.672 15.0606 28.7687 15.1645 28.8456C15.2684 28.9226 15.3864 28.9783 15.5118 29.0096C15.6372 29.041 15.7676 29.0473 15.8955 29.0282C16.0233 29.0092 16.1462 28.9651 16.257 28.8986L16.7348 28.6119V29.5356L13.7816 29.5478L13.7816 28.5468ZM12.5445 31.5216L17.8399 31.4999L18.3015 33.5455H12.1049L12.5445 31.5216ZM16.0689 57.9779L16.0724 58.8335C16.0732 58.9278 16.0553 59.0212 16.0199 59.1085C15.9845 59.1958 15.9321 59.2753 15.8659 59.3423C15.7997 59.4094 15.7209 59.4627 15.634 59.4992C15.5472 59.5357 15.4539 59.5546 15.3597 59.555C15.2655 59.5554 15.1721 59.5372 15.085 59.5014C14.9978 59.4655 14.9186 59.4129 14.8518 59.3464C14.7851 59.2799 14.7321 59.2009 14.696 59.1138C14.6599 59.0268 14.6413 58.9335 14.6413 58.8393L14.6378 57.9837C14.0074 57.9289 13.3962 57.7393 12.8454 57.4278C12.2946 57.1164 11.8171 56.6902 11.4452 56.1783C11.368 56.0547 11.3251 55.9127 11.3209 55.767C11.3167 55.6213 11.3514 55.4771 11.4214 55.3493C11.4914 55.2214 11.5942 55.1145 11.7192 55.0396C11.8442 54.9646 11.9869 54.9243 12.1326 54.9227C12.2631 54.926 12.3913 54.9575 12.5084 55.0151C12.6256 55.0727 12.7288 55.1549 12.8112 55.2562C13.1331 55.6086 13.5231 55.8922 13.9576 56.09C14.392 56.2878 14.862 56.3957 15.3392 56.4071C16.7396 56.4015 17.4149 55.9405 17.411 54.9932C17.4019 52.7626 11.7897 53.8088 11.7747 50.1266C11.7691 48.7669 12.6258 47.5868 14.5944 47.365L14.5909 46.4941C14.5901 46.3999 14.6079 46.3064 14.6434 46.2191C14.6788 46.1318 14.7311 46.0524 14.7973 45.9853C14.8636 45.9183 14.9424 45.865 15.0292 45.8285C15.1161 45.792 15.2093 45.773 15.3035 45.7726C15.3978 45.7723 15.4911 45.7905 15.5783 45.8263C15.6654 45.8621 15.7447 45.9147 15.8114 45.9812C15.8782 46.0477 15.9311 46.1268 15.9673 46.2138C16.0034 46.3008 16.022 46.3941 16.022 46.4883L16.0256 47.3746C16.5562 47.4034 17.0755 47.539 17.5524 47.7734C18.0293 48.0077 18.4539 48.336 18.8008 48.7385C18.9003 48.8821 18.9546 49.0522 18.9568 49.2268C18.9546 49.4443 18.8662 49.652 18.7111 49.8044C18.556 49.9568 18.3468 50.0414 18.1294 50.0398C17.8743 50.0157 17.6377 49.8968 17.4662 49.7065C16.8717 49.1803 16.1024 48.8947 15.3086 48.9053C14.0316 48.9105 13.5569 49.5083 13.5594 50.1194C13.5676 52.1209 19.1802 51.1664 19.1958 54.986C19.2027 56.6667 18.1298 57.7711 16.0689 57.9779ZM18.8365 35.5143C20.9289 36.1654 22.8248 37.3303 24.351 38.9027C25.8773 40.4751 26.9853 42.4049 27.5738 44.5157C28.1623 46.6266 28.2125 48.8512 27.7199 50.9865C27.2273 53.1217 26.2076 55.0995 24.7539 56.7392C25.4297 55.1671 25.7047 53.4519 25.5541 51.7473C25.4035 50.0427 24.832 48.4022 23.891 46.973C22.95 45.5437 21.6688 44.3705 20.1625 43.5585C18.6562 42.7466 16.9719 42.3213 15.2607 42.3208C13.5495 42.3204 11.8649 42.7448 10.3582 43.556C8.85151 44.3672 7.56977 45.5398 6.62803 46.9686C5.68629 48.3974 5.11401 50.0376 4.96255 51.7421C4.81109 53.4466 5.08519 55.162 5.76024 56.7345C4.30797 55.0952 3.2892 53.1185 2.79686 50.9845C2.30452 48.8506 2.35427 46.6273 2.94159 44.5175C3.5289 42.4077 4.63508 40.4785 6.15923 38.9059C7.68339 37.3333 9.57701 36.1673 11.6674 35.5143H18.8365ZM23.8203 25.0063C23.7431 25.11 23.6872 25.2279 23.6556 25.3532C23.624 25.4786 23.6174 25.6089 23.6362 25.7369C23.6549 25.8648 23.6988 25.9877 23.7651 26.0987C23.8314 26.2096 23.9189 26.3065 24.0227 26.3836L24.2732 26.5699C24.0464 26.6567 23.8016 26.6857 23.5608 26.6542L21.6112 26.3807C21.3641 26.3445 21.1304 26.2456 20.9323 26.0935L21.1791 25.9455C21.3708 25.8309 21.5178 25.6544 21.5958 25.445C21.6737 25.2357 21.678 25.006 21.6079 24.7939C21.5378 24.5818 21.3975 24.4 21.2101 24.2783C21.0228 24.1567 20.7995 24.1025 20.5773 24.1248C20.71 23.9165 20.8928 23.7449 21.1091 23.6255C21.3253 23.5062 21.568 23.443 21.815 23.4418C21.8839 23.4418 21.9528 23.4466 22.0212 23.4562L23.9707 23.7297C24.2554 23.7701 24.5221 23.8926 24.7382 24.0823C24.9542 24.272 25.1103 24.5206 25.1872 24.7976C24.9777 24.6456 24.7168 24.5822 24.4609 24.6213C24.205 24.6603 23.9749 24.7987 23.8203 25.0063ZM32.2946 32.2214C32.155 32.075 31.9736 31.9754 31.7752 31.9363C31.5767 31.8971 31.371 31.9204 31.1864 32.0029C31.0017 32.0854 30.8471 32.2231 30.7439 32.397C30.6406 32.5709 30.5938 32.7725 30.6097 32.9742C30.393 32.9282 30.1909 32.8295 30.0214 32.6869C29.8518 32.5442 29.7201 32.3619 29.6378 32.1562L28.8346 30.3581C28.7675 30.2043 28.7272 30.0402 28.7155 29.8728L28.9726 30.0639C29.1821 30.2197 29.4449 30.2859 29.7032 30.2479C29.9615 30.2099 30.1941 30.0709 30.3499 29.8614C30.5057 29.6518 30.5718 29.389 30.5338 29.1307C30.4959 28.8724 30.3568 28.6398 30.1473 28.484L29.9102 28.3078C30.2363 28.2425 30.575 28.2908 30.8698 28.4447C31.1646 28.5987 31.3978 28.8489 31.5306 29.1538L32.3338 30.9512C32.4228 31.1524 32.4655 31.3709 32.4587 31.5908C32.4519 31.8106 32.3958 32.0261 32.2946 32.2214ZM34.2709 42.0973L34.2735 42.1813C34.1692 42.1468 34.0691 42.1008 33.9749 42.0442C33.8093 41.9433 33.6653 41.8105 33.5513 41.6537C33.4373 41.4968 33.3554 41.3189 33.3106 41.1302L32.8506 39.2158C32.778 38.9094 32.8062 38.5878 32.9309 38.2987C33.0478 38.5242 33.2477 38.6955 33.4885 38.7765C33.7293 38.8575 33.9921 38.8419 34.2215 38.7329C34.451 38.6239 34.6291 38.4301 34.7184 38.1922C34.8077 37.9544 34.8012 37.6913 34.7002 37.4582C34.9495 37.5305 35.1753 37.6672 35.3548 37.8547C35.5343 38.0421 35.6611 38.2736 35.7225 38.5258L36.182 40.4402C36.2659 40.7924 36.2161 41.1631 36.0425 41.4806C35.9179 41.3123 35.7427 41.1882 35.5425 41.1264C35.3424 41.0646 35.1277 41.0685 34.9299 41.1373C34.7321 41.2062 34.5614 41.3365 34.4429 41.5092C34.3243 41.6819 34.2641 41.8879 34.2709 42.0973ZM34.7053 52.1397C34.5111 52.0102 34.3505 51.8364 34.2367 51.6326C34.123 51.4287 34.0594 51.2008 34.0513 50.9675L33.9907 48.9997C33.9754 48.7787 34.0147 48.5572 34.1051 48.3549C34.1955 48.1526 34.3343 47.9756 34.5092 47.8396C34.5812 48.0229 34.7067 48.1804 34.8693 48.2915C35.0319 48.4027 35.2242 48.4623 35.4212 48.4628C35.4312 48.4628 35.4418 48.4626 35.4519 48.4623C35.654 48.4557 35.8491 48.3869 36.0106 48.2653C36.1721 48.1437 36.2921 47.9751 36.3542 47.7827C36.3973 47.8124 36.4389 47.8444 36.4786 47.8786C36.6203 48.0111 36.7343 48.1704 36.814 48.3472C36.8937 48.524 36.9375 48.7149 36.943 48.9088L37.003 50.8769C37.0145 51.2528 36.8809 51.6188 36.63 51.899C36.5656 51.6738 36.4228 51.479 36.2274 51.3499C36.032 51.2208 35.7969 51.1658 35.5645 51.1949C35.3321 51.2239 35.1178 51.3351 34.9602 51.5084C34.8027 51.6817 34.7122 51.9056 34.7053 52.1397ZM39.3761 60.5389H39.4502C39.2176 60.7834 38.9128 60.9469 38.5805 61.0054C38.2482 61.0639 37.9059 61.0143 37.6039 60.8639L35.7927 59.959C35.6112 59.8698 35.4493 59.7452 35.3166 59.5925C35.184 59.4398 35.0832 59.2621 35.0203 59.0698C34.9588 58.8832 34.9353 58.6862 34.9511 58.4904C34.9668 58.2946 35.0216 58.1039 35.1121 57.9295C35.1315 57.8918 35.1553 57.858 35.1774 57.8226L35.1957 58.0384C35.2167 58.284 35.329 58.5128 35.5104 58.6796C35.6919 58.8464 35.9293 58.9391 36.1758 58.9393C36.2037 58.9393 36.232 58.9381 36.2604 58.9357C36.3892 58.9248 36.5146 58.8886 36.6294 58.8292C36.7442 58.7698 36.8462 58.6883 36.9295 58.5895C37.0128 58.4907 37.0759 58.3764 37.1151 58.2533C37.1542 58.1301 37.1688 58.0004 37.1578 57.8716L37.1025 57.2219C37.1383 57.2366 37.1755 57.2434 37.2107 57.2609L39.0218 58.1657C39.2163 58.2634 39.3879 58.4012 39.525 58.5702H39.3761C39.115 58.5702 38.8646 58.6739 38.68 58.8585C38.4954 59.0431 38.3917 59.2935 38.3917 59.5546C38.3917 59.8156 38.4954 60.066 38.68 60.2506C38.8646 60.4352 39.115 60.5389 39.3761 60.5389ZM49.2201 60.5389H49.3282C49.191 60.6932 49.0228 60.8168 48.8345 60.9016C48.6462 60.9864 48.4422 61.0306 48.2357 61.0311H46.2669C46.0469 61.0303 45.83 60.9802 45.6321 60.8843C45.4341 60.7884 45.2603 60.6492 45.1233 60.4772C45.3139 60.4095 45.4788 60.2844 45.5954 60.1192C45.7121 59.9541 45.7747 59.7568 45.7747 59.5546C45.7747 59.3523 45.7121 59.1551 45.5954 58.9899C45.4788 58.8247 45.3139 58.6997 45.1233 58.632C45.2603 58.4599 45.4341 58.3208 45.6321 58.2249C45.83 58.129 46.0469 58.0788 46.2669 58.078H48.2357C48.4422 58.0786 48.6462 58.1227 48.8345 58.2075C49.0227 58.2923 49.191 58.4159 49.3282 58.5702H49.2201C48.959 58.5702 48.7086 58.6739 48.524 58.8585C48.3394 59.0431 48.2357 59.2935 48.2357 59.5546C48.2357 59.8156 48.3394 60.066 48.524 60.2506C48.7086 60.4352 48.959 60.5389 49.2201 60.5389ZM54.1416 12.7968C55.4071 12.7968 56.6442 12.4216 57.6964 11.7186C58.7487 11.0156 59.5688 10.0163 60.0532 8.84722C60.5375 7.67809 60.6643 6.39159 60.4175 5.15041C60.1707 3.90923 59.5614 2.76911 58.6666 1.87422C57.7718 0.979333 56.6318 0.369872 55.3906 0.122907C54.1495 -0.124058 52.863 0.00256458 51.6938 0.486763C50.5246 0.970961 49.5252 1.79099 48.8221 2.84315C48.1189 3.89531 47.7436 5.13234 47.7435 6.39783C47.7454 8.09421 48.4201 9.72057 49.6195 10.9202C50.819 12.1198 52.4453 12.7946 54.1416 12.7968ZM57.1642 39.5422C57.2048 39.4884 57.2426 39.4325 57.2774 39.3749H57.2725C57.2393 39.4325 57.2032 39.4883 57.1642 39.5422Z" fill="#E63A27"/>
<path d="M62.4997 61.8925C62.4997 61.8925 59.8172 40.9893 59.8172 40.9843C59.968 40.8111 60.0502 40.5889 60.0486 40.3593V17.7186C60.0485 16.1806 59.5308 14.6873 58.5789 13.4793C58.0021 13.8438 57.3827 14.136 56.7345 14.3493C57.5976 15.2589 58.0791 16.4648 58.0798 17.7186V39.3749H57.2775C56.9183 39.9678 56.4305 40.4724 55.8501 40.8515C55.5555 41.0491 55.2403 41.2142 54.91 41.3436H57.8829L60.5506 62.1386C60.5809 62.3759 60.6965 62.5942 60.8758 62.7527C61.0551 62.9111 61.2859 62.999 61.5252 62.9999C61.5663 62.9991 61.6074 62.9958 61.6482 62.99C61.7763 62.9741 61.8999 62.933 62.0121 62.8691C62.1242 62.8053 62.2227 62.7199 62.3018 62.618C62.3809 62.516 62.4391 62.3994 62.4731 62.2749C62.507 62.1504 62.5161 62.0205 62.4997 61.8925ZM52.8154 46.1914L53.4184 41.6687C53.3119 41.6756 53.2065 41.6919 53.1001 41.6919C52.5434 41.6908 51.9911 41.5938 51.4674 41.4052L49.7404 54.3576C50.4164 54.5539 51.0476 54.8804 51.5983 55.319L52.1453 51.2172L55.1612 62.2746C55.2301 62.5262 55.3961 62.7402 55.6227 62.8695C55.8494 62.9988 56.118 63.0329 56.3698 62.9643C56.6215 62.8956 56.8356 62.7298 56.9652 62.5033C57.0948 62.2769 57.1292 62.0082 57.0608 61.7564L52.8154 46.1914ZM43.4891 54.9161C44.0823 54.5593 44.7388 54.3206 45.4226 54.2131L44.6377 41.3436H51.2972C50.968 41.2152 50.6542 41.0503 50.3616 40.8521C49.8951 40.5364 49.4844 40.1453 49.1463 39.6948C49.0725 39.5964 49.0036 39.493 48.9297 39.3749H44.2981V17.7186C44.3006 16.4894 44.7622 15.3055 45.5924 14.399C46.4226 13.4926 47.5615 12.929 48.7857 12.8188C48.1959 12.3258 47.6763 11.7545 47.2413 11.1208C45.8228 11.5476 44.5793 12.4196 43.6947 13.6078C42.8102 14.796 42.3314 16.2373 42.3293 17.7186V40.3593C42.3303 40.4941 42.3587 40.6274 42.4129 40.751C42.467 40.8745 42.5458 40.9857 42.6443 41.0778L43.4891 54.9161Z" fill="#E63A27"/>
<path d="M53.2443 37.744C52.9872 37.7808 52.7259 37.7148 52.5171 37.5603C52.3082 37.4057 52.1687 37.1752 52.1287 36.9185L49.4567 17.7061C49.4389 17.5781 49.396 17.4549 49.3306 17.3434C49.2652 17.232 49.1784 17.1345 49.0753 17.0566C48.9722 16.9786 48.8548 16.9218 48.7297 16.8892C48.6046 16.8567 48.4744 16.8491 48.3464 16.8669C48.2184 16.8847 48.0951 16.9275 47.9836 16.993C47.8722 17.0584 47.7747 17.1451 47.6968 17.2482C47.6189 17.3513 47.562 17.4688 47.5295 17.5939C47.4969 17.7189 47.4893 17.8492 47.5071 17.9772L50.1801 37.1963C50.293 37.9706 50.7085 38.6684 51.3355 39.1366C51.9625 39.6048 52.7496 39.805 53.5241 39.6932C54.2985 39.5815 54.997 39.167 55.4661 38.5407C55.9352 37.9145 56.1365 37.1276 56.026 36.353L53.6409 18.8164C53.6057 18.5578 53.4692 18.3237 53.2614 18.1657C53.0536 18.0076 52.7916 17.9386 52.5329 17.9738C52.2743 18.009 52.0402 18.1455 51.8822 18.3533C51.7242 18.5611 51.6552 18.8231 51.6903 19.0817L54.0764 36.6274C54.1137 36.8858 54.047 37.1484 53.8911 37.3577C53.7351 37.567 53.5025 37.7059 53.2443 37.744Z" fill="#E63A27"/>
</g>
<defs>
<clipPath id="clip0_17_7">
<rect width="63" height="63" fill="white"/>
</clipPath>
</defs>
</svg>
