<svg width="33" height="31" viewBox="0 0 33 31" fill="none" xmlns="http://www.w3.org/2000/svg">
<path d="M31.3719 17.3456H17.4922L26.7357 26.5892C27.089 26.9425 27.6705 26.9711 28.0337 26.6289C30.2974 24.4963 31.8544 21.6214 32.3112 18.3897C32.3896 17.8364 31.9305 17.3456 31.3719 17.3456ZM30.4459 13.5553C29.9639 6.56778 24.3803 0.984093 17.3927 0.502115C16.8593 0.465265 16.4101 0.915072 16.4101 1.44969V14.538H29.4989C30.0336 14.538 30.4828 14.0887 30.4459 13.5553ZM13.6024 17.3456V3.46593C13.6024 2.90733 13.1117 2.44816 12.5589 2.52654C5.58839 3.51155 0.260309 9.6012 0.508317 16.8993C0.763344 24.3945 7.21682 30.5409 14.7155 30.4468C17.6636 30.4099 20.3876 29.46 22.6272 27.8713C23.0893 27.5438 23.1197 26.8635 22.7191 26.4628L13.6024 17.3456Z" fill="#E63A27"/>
</svg>
