<svg width="56" height="53" viewBox="0 0 56 53" fill="none" xmlns="http://www.w3.org/2000/svg">
<path d="M42.4904 8.4309C47.2804 3.8509 40.4904 -3.1791 35.8404 1.6109C31.1904 -3.1991 24.4004 3.8609 29.1904 8.4309C27.0504 9.1809 25.0304 10.2909 23.2704 11.7009C21.3904 11.4209 19.3604 11.4109 17.4104 11.6809C19.0404 5.6909 10.3804 3.1009 8.47038 9.0109C2.30038 6.7709 -0.719622 15.9809 5.51038 17.9509C-10.9696 36.6609 12.8804 62.6109 32.8604 47.6309C57.1804 50.6909 65.3504 16.9609 42.4904 8.4209V8.4309ZM38.8904 39.7509C42.6704 31.2909 39.6804 20.6409 32.1304 15.3109C49.1904 10.9809 55.5904 35.3309 38.7404 40.1009C38.7904 39.9809 38.8404 39.8609 38.8904 39.7509ZM25.9904 20.2609C32.9604 23.5409 35.3404 33.2209 30.6404 39.3309C23.3304 36.2809 20.6504 26.2909 25.4904 20.0209C25.6604 20.0909 25.8304 20.1809 25.9904 20.2609ZM7.54038 30.5909C8.00038 25.2309 12.1204 20.4309 17.3904 19.2709C13.4104 27.7809 16.3404 38.6309 24.0004 44.0509C15.5404 46.8209 6.54038 39.4509 7.54038 30.5909ZM30.3704 2.8509C31.3804 1.7909 33.2304 1.7809 34.2404 2.8509C34.8404 3.4309 35.6504 4.5809 36.5404 3.7309L37.4204 2.8409C39.0804 1.1209 42.1904 2.4509 42.0904 4.8209C42.0904 5.5509 41.8004 6.2509 41.2804 6.7909L35.8304 12.3209L31.7604 8.2009C31.7604 8.2009 30.3804 6.8009 30.3604 6.7909C29.2904 5.7009 29.2904 3.9309 30.3604 2.8409L30.3704 2.8509ZM33.6004 12.9209C32.1804 13.1409 30.8004 13.5709 29.5004 14.1709C18.3404 19.3909 18.2604 35.4909 29.2804 40.9209C28.3804 41.8109 27.3404 42.5309 26.2304 43.1309C12.9004 34.8509 15.6504 14.4209 30.7504 10.0309L33.6004 12.9209ZM21.2804 13.5109C20.2704 14.6009 19.3704 15.7709 18.5804 17.0209C17.4704 17.1809 16.3704 17.4309 15.3104 17.7909L16.6804 13.8409C18.1604 13.5409 19.7504 13.4309 21.2804 13.5109ZM4.19038 12.5009C4.64038 11.1209 6.23038 10.3409 7.58038 10.8409L8.74038 11.2509C9.24038 11.4409 9.85038 11.1509 10.0204 10.6409L10.4304 9.4809C11.3704 6.6409 15.6504 7.3809 15.6104 10.3709C15.6504 11.0009 15.1604 12.0809 14.9704 12.6709L12.9504 18.4909L7.88038 16.6809L7.64038 16.6009C7.64038 16.6009 5.84038 15.9609 5.83038 15.9609C4.43038 15.4609 3.70038 13.9109 4.19038 12.5009ZM2.06038 31.7709C2.06038 26.8409 4.06038 22.1109 7.55038 18.7009L11.2704 20.0209C-2.45962 31.1709 10.4404 52.3609 26.6204 45.2009C37.7704 39.9809 37.8604 23.8809 26.8404 18.4509C27.7404 17.5609 28.7804 16.8409 29.8904 16.2409C40.3904 22.5709 41.4804 38.1409 31.9304 45.8409C20.3604 55.7209 1.87038 47.0209 2.06038 31.7709ZM35.8304 45.8809C35.5004 45.8809 35.1704 45.8809 34.8404 45.8509C35.8704 44.7809 36.7804 43.5909 37.5504 42.3209C54.6404 39.9209 54.9804 15.8309 38.0404 12.9309L40.9104 10.0309C60.9704 16.2609 56.8704 45.4609 35.8304 45.8809Z" fill="#E63A27"/>
</svg>
